<svg id="Layer_1" data-name="Layer 1" xmlns="http://www.w3.org/2000/svg" viewBox="0 0 137.73 58.86">
  <defs>
    <style>
      .cls-1 {
        fill: #fff;
      }

      .cls-2 {
        fill: #62c246;
      }
    </style>
  </defs>
  <title>gieclogo</title>
  <g>
    <path class="cls-1" d="M142.81,42.18l-1.15.5c-2,.84-3.87,1.8-5.87,2.51A18.41,18.41,0,0,1,123,45.4a11.42,11.42,0,0,1-7.86-10.55A11.17,11.17,0,0,1,122.67,24a18.79,18.79,0,0,1,13.07-.09c2.22.72,4.35,1.72,6.62,2.64,0-2.18-.23-6-.19-8.32a12.32,12.32,0,0,0-2-1.11,28.7,28.7,0,0,0-14.49-2.27,23.08,23.08,0,0,0-12.77,4.66,19,19,0,0,0,2.9,32.33c8.86,4.35,17.79,3.26,26.47-1a1,1,0,0,0,.51-.62c0-2.64,0-5.28,0-8.05" transform="translate(-5.08 -9.16)"/>
    <rect class="cls-1" x="46.83" y="18.7" width="8.07" height="26.63"/>
    <path class="cls-1" d="M6,28.37C8.26,21.81,13,17.8,19.55,15.94A34.75,34.75,0,0,1,42.3,17.35a11,11,0,0,1,1.18.6s0,.74,0,1.23c-.08,2.31,0,4.63,0,7.1-1.49-.58-2.84-1.16-4.23-1.65-4.85-1.7-9.81-2.48-14.88-1.32a11.72,11.72,0,0,0-7.65,17.79,11.88,11.88,0,0,0,7.42,4.85,16.3,16.3,0,0,0,9.43-.63c.45-.16.7-.27,1-.39.1-.21.08-3.19.08-4.4H29.13v-7H44.2c0,.27.12,10.91.08,15.69a5.68,5.68,0,0,1-.69.64,20.5,20.5,0,0,1-9.07,3.91C28.17,55,21.91,54.79,16,51.84S6.18,44.26,5.21,37.5c0-.18-.58-5.57.76-9.13" transform="translate(-5.08 -9.16)"/>
    <polygon class="cls-1" points="72.77 38.2 72.77 29.49 94.43 29.49 94.43 22.07 72.77 22.07 72.77 13.67 95.05 13.67 95.05 6.32 63.21 6.32 63.21 45.6 95.78 45.6 95.78 38.2 72.77 38.2"/>
    <path class="cls-2" d="M59,19.54a.21.21,0,0,0-.06.23l.38,1.08-2.79-.52c-.17,0-.23.12-.23.31l0,2.92H55.8l0-2.94c0-.18,0-.32-.22-.28l-2.79.52.38-1.08a.21.21,0,0,0-.06-.23l-3-2.56.66-.32a.23.23,0,0,0,.12-.28l-.6-1.91,1.74.4a.21.21,0,0,0,.24-.13l.34-.83,1.33,1.51a.23.23,0,0,0,.39-.2l-.64-3.51,1.06.64a.17.17,0,0,0,.25-.08l1.09-2.2,1.09,2.2a.17.17,0,0,0,.25.08l1.06-.64-.64,3.51a.23.23,0,0,0,.39.2l1.32-1.51.34.83a.22.22,0,0,0,.24.13l1.74-.4-.6,1.91a.23.23,0,0,0,.12.28l.66.32-3,2.56M55.92,9.16a7.6,7.6,0,0,0-7.76,7.43,7.77,7.77,0,0,0,15.52,0,7.6,7.6,0,0,0-7.76-7.43" transform="translate(-5.08 -9.16)"/>
    <path class="cls-2" d="M33.88,60.89a.07.07,0,0,0,0,.08l.14.39-1-.19c-.06,0-.09,0-.08.11v1.06h-.21V61.28c0-.07,0-.11-.08-.1l-1,.19.14-.39a.08.08,0,0,0,0-.08L30.58,60l.25-.11a.09.09,0,0,0,0-.1l-.22-.69.64.14a.08.08,0,0,0,.09,0l.13-.3.49.54a.08.08,0,0,0,.14-.07l-.24-1.27.39.23a.06.06,0,0,0,.09,0l.4-.8.4.8a.06.06,0,0,0,.09,0l.39-.23-.24,1.27a.08.08,0,0,0,.14.07l.49-.54.12.3a.08.08,0,0,0,.09,0l.64-.14-.22.69a.08.08,0,0,0,0,.1L35,60l-1.12.93m-1.15-3.76a2.7,2.7,0,1,0,2.87,2.69,2.78,2.78,0,0,0-2.87-2.69" transform="translate(-5.08 -9.16)"/>
    <path class="cls-1" d="M10.71,66.31v-.74h1.94v1.76a2.45,2.45,0,0,1-.82.48,3,3,0,0,1-1.09.21,2.45,2.45,0,0,1-1.22-.29,1.85,1.85,0,0,1-.78-.83,2.66,2.66,0,0,1-.26-1.18,2.55,2.55,0,0,1,.29-1.23,2,2,0,0,1,.85-.82,2.31,2.31,0,0,1,1.06-.22,2.13,2.13,0,0,1,1.3.35,1.55,1.55,0,0,1,.6,1l-.89.17a.93.93,0,0,0-.35-.51,1.07,1.07,0,0,0-.65-.19,1.22,1.22,0,0,0-.94.37,1.55,1.55,0,0,0-.35,1.1,1.72,1.72,0,0,0,.35,1.18,1.18,1.18,0,0,0,.92.39,1.55,1.55,0,0,0,.57-.11,1.94,1.94,0,0,0,.49-.27v-.56Z" transform="translate(-5.08 -9.16)"/>
    <path class="cls-1" d="M13.48,67.94V63.51h1.89a3.27,3.27,0,0,1,1,.12,1,1,0,0,1,.52.42,1.27,1.27,0,0,1,.19.7,1.18,1.18,0,0,1-.29.82,1.42,1.42,0,0,1-.88.41,2.07,2.07,0,0,1,.48.37,4.94,4.94,0,0,1,.51.72l.54.86H16.4l-.65-1a6.37,6.37,0,0,0-.47-.65.7.7,0,0,0-.27-.18,1.49,1.49,0,0,0-.45,0h-.18v1.85Zm.9-2.55H15a3.44,3.44,0,0,0,.81-.05.49.49,0,0,0,.25-.19.57.57,0,0,0,.09-.33.53.53,0,0,0-.12-.36.55.55,0,0,0-.34-.17l-.66,0h-.7Z" transform="translate(-5.08 -9.16)"/>
    <polygon class="cls-1" points="12.88 58.78 12.88 54.36 16.18 54.36 16.18 55.1 13.78 55.1 13.78 56.09 16.02 56.09 16.02 56.83 13.78 56.83 13.78 58.04 16.27 58.04 16.27 58.78 12.88 58.78"/>
    <polygon class="cls-1" points="17.03 58.78 17.03 54.36 20.33 54.36 20.33 55.1 17.93 55.1 17.93 56.09 20.16 56.09 20.16 56.83 17.93 56.83 17.93 58.04 20.41 58.04 20.41 58.78 17.03 58.78"/>
    <polygon class="cls-1" points="21.19 58.78 21.19 54.36 22.06 54.36 23.88 57.31 23.88 54.36 24.71 54.36 24.71 58.78 23.81 58.78 22.02 55.9 22.02 58.78 21.19 58.78"/>
    <rect class="cls-1" x="27.37" y="54.36" width="0.9" height="4.42"/>
    <polygon class="cls-1" points="29.13 58.78 29.13 54.36 30 54.36 31.82 57.31 31.82 54.36 32.66 54.36 32.66 58.78 31.76 58.78 29.96 55.9 29.96 58.78 29.13 58.78"/>
    <rect class="cls-1" x="33.58" y="54.36" width="0.9" height="4.42"/>
    <polygon class="cls-1" points="36.34 58.78 36.34 55.1 35.02 55.1 35.02 54.36 38.55 54.36 38.55 55.1 37.24 55.1 37.24 58.78 36.34 58.78"/>
    <rect class="cls-1" x="39.11" y="54.36" width="0.9" height="4.42"/>
    <path class="cls-1" d="M50,67.94H49l-.39-1H46.81l-.37,1h-1l1.73-4.42h1ZM48.3,66.19l-.61-1.64-.6,1.64Z" transform="translate(-5.08 -9.16)"/>
    <polygon class="cls-1" points="45.89 58.78 45.89 55.1 44.57 55.1 44.57 54.36 48.11 54.36 48.11 55.1 46.79 55.1 46.79 58.78 45.89 58.78"/>
    <rect class="cls-1" x="48.66" y="54.36" width="0.9" height="4.42"/>
    <polygon class="cls-1" points="51.55 58.78 49.96 54.36 50.93 54.36 52.06 57.63 53.15 54.36 54.1 54.36 52.51 58.78 51.55 58.78"/>
    <polygon class="cls-1" points="54.56 58.78 54.56 54.36 57.86 54.36 57.86 55.1 55.46 55.1 55.46 56.09 57.69 56.09 57.69 56.83 55.46 56.83 55.46 58.04 57.94 58.04 57.94 58.78 54.56 58.78"/>
    <path class="cls-1" d="M63.56,66.5l.87-.08a1.05,1.05,0,0,0,.32.64,1,1,0,0,0,.65.21,1,1,0,0,0,.65-.18.54.54,0,0,0,.22-.43.4.4,0,0,0-.09-.27.75.75,0,0,0-.32-.19L65.14,66a2.42,2.42,0,0,1-1-.44,1.15,1.15,0,0,1-.41-.89,1.13,1.13,0,0,1,.19-.63,1.19,1.19,0,0,1,.55-.45,2.23,2.23,0,0,1,.88-.15,1.88,1.88,0,0,1,1.26.37,1.28,1.28,0,0,1,.44,1l-.9,0a.76.76,0,0,0-.25-.49.91.91,0,0,0-.57-.15,1,1,0,0,0-.61.16.32.32,0,0,0-.14.27.34.34,0,0,0,.13.27,2.37,2.37,0,0,0,.83.3,4.34,4.34,0,0,1,1,.32,1.24,1.24,0,0,1,.49.45,1.39,1.39,0,0,1,0,1.42,1.28,1.28,0,0,1-.6.49,2.53,2.53,0,0,1-1,.16,1.93,1.93,0,0,1-1.29-.39,1.68,1.68,0,0,1-.54-1.13" transform="translate(-5.08 -9.16)"/>
    <polygon class="cls-1" points="64.58 58.78 64.58 54.36 67.88 54.36 67.88 55.1 65.48 55.1 65.48 56.09 67.71 56.09 67.71 56.83 65.48 56.83 65.48 58.04 67.96 58.04 67.96 58.78 64.58 58.78"/>
    <polygon class="cls-1" points="68.73 58.78 68.73 54.36 69.61 54.36 71.43 57.31 71.43 54.36 72.26 54.36 72.26 58.78 71.36 58.78 69.57 55.9 69.57 58.78 68.73 58.78"/>
    <polygon class="cls-1" points="73.21 58.78 73.21 54.36 76.51 54.36 76.51 55.1 74.11 55.1 74.11 56.09 76.35 56.09 76.35 56.83 74.11 56.83 74.11 58.04 76.6 58.04 76.6 58.78 73.21 58.78"/>
    <path class="cls-1" d="M82.44,67.94V63.51h1.89a3.27,3.27,0,0,1,1,.12,1,1,0,0,1,.52.42,1.27,1.27,0,0,1,.19.7,1.17,1.17,0,0,1-.29.82,1.42,1.42,0,0,1-.88.41,2.08,2.08,0,0,1,.48.37,4.94,4.94,0,0,1,.51.72l.54.86H85.37l-.65-1a6.59,6.59,0,0,0-.47-.65.71.71,0,0,0-.27-.18,1.49,1.49,0,0,0-.45,0h-.18v1.85Zm.9-2.55H84a3.46,3.46,0,0,0,.81-.05.48.48,0,0,0,.25-.19.57.57,0,0,0,.09-.33.53.53,0,0,0-.12-.36.55.55,0,0,0-.34-.17l-.65,0h-.7Z" transform="translate(-5.08 -9.16)"/>
    <path class="cls-1" d="M89,66.31v-.74h1.94v1.76a2.45,2.45,0,0,1-.82.48A3,3,0,0,1,89,68a2.45,2.45,0,0,1-1.22-.29,1.85,1.85,0,0,1-.78-.83,2.66,2.66,0,0,1-.26-1.18,2.54,2.54,0,0,1,.29-1.23,2,2,0,0,1,.85-.82A2.31,2.31,0,0,1,89,63.44a2.13,2.13,0,0,1,1.3.35,1.55,1.55,0,0,1,.6,1l-.89.17a.93.93,0,0,0-.35-.51A1.07,1.07,0,0,0,89,64.2a1.22,1.22,0,0,0-.94.37,1.55,1.55,0,0,0-.35,1.1,1.72,1.72,0,0,0,.35,1.18,1.18,1.18,0,0,0,.92.39,1.55,1.55,0,0,0,.57-.11,1.92,1.92,0,0,0,.49-.27v-.56Z" transform="translate(-5.08 -9.16)"/>
    <polygon class="cls-1" points="87.85 58.78 87.85 56.92 86.22 54.36 87.28 54.36 88.32 56.11 89.35 54.36 90.38 54.36 88.75 56.93 88.75 58.78 87.85 58.78"/>
    <path class="cls-1" d="M100.37,66.31l.87.28a1.94,1.94,0,0,1-.67,1.08,2.11,2.11,0,0,1-2.64-.25,2.3,2.3,0,0,1-.57-1.65,2.41,2.41,0,0,1,.57-1.71,2,2,0,0,1,1.51-.61,1.86,1.86,0,0,1,1.33.48,1.74,1.74,0,0,1,.45.82l-.89.21a.92.92,0,0,0-.94-.74,1,1,0,0,0-.8.35,1.73,1.73,0,0,0-.31,1.14,1.84,1.84,0,0,0,.3,1.2,1,1,0,0,0,.79.36A.91.91,0,0,0,100,67a1.31,1.31,0,0,0,.37-.71" transform="translate(-5.08 -9.16)"/>
    <path class="cls-1" d="M101.83,65.75a2.8,2.8,0,0,1,.2-1.13,2.11,2.11,0,0,1,.41-.61,1.75,1.75,0,0,1,.58-.4,2.45,2.45,0,0,1,1-.18,2.1,2.1,0,0,1,1.57.61,2.7,2.7,0,0,1,0,3.36A2.08,2.08,0,0,1,104,68a2.1,2.1,0,0,1-1.58-.6,2.28,2.28,0,0,1-.58-1.66m.93,0a1.65,1.65,0,0,0,.35,1.14,1.21,1.21,0,0,0,1.77,0,1.69,1.69,0,0,0,.34-1.15,1.65,1.65,0,0,0-.33-1.13,1.25,1.25,0,0,0-1.79,0,1.67,1.67,0,0,0-.34,1.14" transform="translate(-5.08 -9.16)"/>
    <polygon class="cls-1" points="101.78 58.78 101.78 54.36 102.65 54.36 104.47 57.31 104.47 54.36 105.31 54.36 105.31 58.78 104.41 58.78 102.61 55.9 102.61 58.78 101.78 58.78"/>
    <path class="cls-1" d="M111.11,66.5l.87-.08a1.06,1.06,0,0,0,.32.64,1,1,0,0,0,.65.21,1,1,0,0,0,.65-.18.54.54,0,0,0,.22-.43.41.41,0,0,0-.09-.27.75.75,0,0,0-.32-.19l-.72-.19a2.43,2.43,0,0,1-1-.44,1.15,1.15,0,0,1-.22-1.52,1.19,1.19,0,0,1,.56-.45,2.23,2.23,0,0,1,.88-.15,1.88,1.88,0,0,1,1.26.37,1.28,1.28,0,0,1,.44,1l-.9,0a.76.76,0,0,0-.25-.49.91.91,0,0,0-.57-.15,1,1,0,0,0-.61.16.32.32,0,0,0-.14.27.34.34,0,0,0,.13.27,2.37,2.37,0,0,0,.83.3,4.34,4.34,0,0,1,1,.32,1.24,1.24,0,0,1,.49.45,1.39,1.39,0,0,1,0,1.42,1.28,1.28,0,0,1-.6.49,2.53,2.53,0,0,1-1,.16,1.93,1.93,0,0,1-1.3-.39,1.68,1.68,0,0,1-.54-1.13" transform="translate(-5.08 -9.16)"/>
    <path class="cls-1" d="M115.48,63.51h.9v2.4a4.83,4.83,0,0,0,0,.74.71.71,0,0,0,.27.43,1,1,0,0,0,.59.16.91.91,0,0,0,.58-.15.61.61,0,0,0,.23-.38,5,5,0,0,0,0-.75V63.51h.9v2.32A6,6,0,0,1,119,67a1.24,1.24,0,0,1-.27.56,1.37,1.37,0,0,1-.52.36,2.31,2.31,0,0,1-.86.13,2.49,2.49,0,0,1-1-.15,1.4,1.4,0,0,1-.52-.38,1.24,1.24,0,0,1-.25-.49,5.31,5.31,0,0,1-.09-1.12Z" transform="translate(-5.08 -9.16)"/>
    <polygon class="cls-1" points="114.92 58.78 114.92 54.39 115.82 54.39 115.82 58.04 118.05 58.04 118.05 58.78 114.92 58.78"/>
    <polygon class="cls-1" points="119.23 58.78 119.23 55.1 117.91 55.1 117.91 54.36 121.45 54.36 121.45 55.1 120.13 55.1 120.13 58.78 119.23 58.78"/>
    <path class="cls-1" d="M130.66,67.94h-1l-.39-1h-1.78l-.37,1h-1l1.73-4.42h1ZM129,66.19l-.61-1.64-.6,1.64Z" transform="translate(-5.08 -9.16)"/>
    <polygon class="cls-1" points="126.06 58.78 126.06 54.36 126.94 54.36 128.76 57.31 128.76 54.36 129.59 54.36 129.59 58.78 128.69 58.78 126.9 55.9 126.9 58.78 126.06 58.78"/>
    <polygon class="cls-1" points="131.55 58.78 131.55 55.1 130.23 55.1 130.23 54.36 133.76 54.36 133.76 55.1 132.44 55.1 132.44 58.78 131.55 58.78"/>
    <path class="cls-1" d="M139.19,66.5l.88-.08a1.06,1.06,0,0,0,.32.64,1,1,0,0,0,.65.21,1,1,0,0,0,.65-.18.54.54,0,0,0,.22-.43.41.41,0,0,0-.09-.27.75.75,0,0,0-.32-.19l-.72-.19a2.43,2.43,0,0,1-1-.44,1.15,1.15,0,0,1-.22-1.52,1.19,1.19,0,0,1,.56-.45,2.23,2.23,0,0,1,.88-.15,1.88,1.88,0,0,1,1.26.37,1.28,1.28,0,0,1,.44,1l-.9,0a.76.76,0,0,0-.25-.49.91.91,0,0,0-.57-.15,1,1,0,0,0-.61.16.32.32,0,0,0-.14.27.34.34,0,0,0,.13.27,2.38,2.38,0,0,0,.83.3,4.34,4.34,0,0,1,1,.32,1.24,1.24,0,0,1,.49.45,1.39,1.39,0,0,1,0,1.42,1.28,1.28,0,0,1-.6.49,2.52,2.52,0,0,1-1,.16,1.93,1.93,0,0,1-1.3-.39,1.68,1.68,0,0,1-.54-1.13" transform="translate(-5.08 -9.16)"/>
  </g>
</svg>
